<?xml version="1.0" standalone="no"?>
<!DOCTYPE svg PUBLIC "-//W3C//DTD SVG 20010904//EN"
 "http://www.w3.org/TR/2001/REC-SVG-20010904/DTD/svg10.dtd">
<svg version="1.0" xmlns="http://www.w3.org/2000/svg"
 width="320.000000pt" height="320.000000pt" viewBox="0 0 320.000000 320.000000"
 preserveAspectRatio="xMidYMid meet">

<g transform="translate(0.000000,320.000000) scale(0.100000,-0.100000)"
fill="#000000" stroke="none">
<path d="M1480 2685 c-237 -54 -419 -211 -490 -425 -38 -114 -48 -220 -29
-312 59 -288 249 -478 537 -537 290 -60 622 144 716 439 38 121 44 206 22 310
-24 110 -41 154 -94 239 -134 216 -423 340 -662 286z"/>
<path d="M971 1449 c-243 -160 -421 -419 -486 -706 -22 -98 -17 -140 18 -167
l28 -21 1069 0 1069 0 28 21 c35 27 40 69 18 167 -65 287 -244 547 -486 705
l-91 60 -54 -43 c-71 -58 -163 -108 -259 -141 -73 -25 -93 -27 -225 -27 -132
0 -152 2 -225 27 -97 33 -188 83 -260 141 l-53 44 -91 -60z"/>
</g>
</svg>
