<?xml version="1.0" standalone="no"?>
<!DOCTYPE svg PUBLIC "-//W3C//DTD SVG 20010904//EN"
 "http://www.w3.org/TR/2001/REC-SVG-20010904/DTD/svg10.dtd">
<svg version="1.0" xmlns="http://www.w3.org/2000/svg"
 width="50.000000pt" height="50.000000pt" viewBox="0 0 50.000000 50.000000"
 preserveAspectRatio="xMidYMid meet">

<g transform="translate(0.000000,50.000000) scale(0.015625,-0.015625)"
fill="#000000" stroke="none">
<path d="M1482 2700 c-74 -11 -208 -66 -240 -97 -7 -7 -18 -13 -23 -13 -16 0
-169 -158 -169 -174 0 -8 -4 -16 -8 -18 -10 -4 -57 -102 -78 -163 -24 -71 -24
-300 0 -370 26 -76 68 -165 78 -165 4 0 8 -7 8 -15 0 -16 153 -175 169 -175 5
0 16 -6 23 -13 7 -7 40 -25 73 -41 33 -16 68 -32 77 -37 10 -5 60 -14 113 -20
96 -12 261 -1 303 20 9 5 44 21 77 37 33 16 66 34 73 41 7 7 18 13 23 13 16 0
169 159 169 175 0 8 4 15 8 15 10 0 52 89 78 165 24 70 24 299 0 370 -21 61
-68 159 -78 163 -4 2 -8 10 -8 18 0 19 -165 184 -184 184 -8 0 -16 4 -18 8 -4
11 -104 58 -161 77 -58 18 -231 27 -305 15z"/>
<path d="M996 1485 c-179 -107 -359 -307 -438 -485 -59 -133 -72 -172 -92
-272 -21 -104 -20 -125 9 -153 l24 -25 1101 0 1101 0 24 25 c29 28 30 49 9
153 -20 100 -33 139 -92 272 -71 159 -238 352 -397 459 -97 65 -117 70 -147
39 -31 -31 -94 -78 -106 -78 -6 0 -12 -3 -14 -7 -5 -12 -107 -60 -153 -73 -88
-25 -173 -40 -225 -40 -52 0 -137 15 -225 40 -46 13 -148 61 -153 73 -2 4 -8
7 -14 7 -12 0 -75 47 -105 77 -29 30 -39 29 -107 -12z"/>
</g>
</svg>
